<?xml version="1.0" standalone="no"?>
<!DOCTYPE svg PUBLIC "-//W3C//DTD SVG 20010904//EN"
 "http://www.w3.org/TR/2001/REC-SVG-20010904/DTD/svg10.dtd">
<svg version="1.0" xmlns="http://www.w3.org/2000/svg"
 width="600.000000pt" height="600.000000pt" viewBox="0 0 600.000000 600.000000"
 preserveAspectRatio="xMidYMid meet">
<metadata>
Created by potrace 1.11, written by Peter Selinger 2001-2013
</metadata>
<g transform="translate(0.000000,600.000000) scale(0.100000,-0.100000)"
fill="#000000" stroke="none">
<path d="M953 4168 c-95 -95 -173 -176 -173 -180 0 -4 120 -6 268 -5 l267 2 5
-689 5 -689 222 209 222 209 0 483 1 482 305 0 305 0 0 -507 c0 -297 4 -534
10 -571 16 -97 48 -170 94 -216 53 -54 105 -78 180 -83 l61 -4 200 196 200
196 -108 -6 c-91 -5 -112 -4 -134 10 -52 34 -53 48 -53 535 l0 450 354 0 355
0 -34 -73 c-42 -91 -72 -207 -85 -333 -7 -64 -10 -429 -8 -1019 l3 -919 233
228 232 229 0 304 c0 287 1 305 18 297 9 -4 55 -21 102 -38 82 -30 91 -31 250
-30 159 0 169 1 260 32 452 151 696 624 554 1073 -94 298 -294 492 -589 572
l-80 21 -1635 3 -1635 3 -172 -172z m3390 -245 c-12 -89 -6 -178 15 -226 11
-24 53 -79 94 -123 90 -97 118 -158 118 -263 0 -209 -211 -348 -420 -277 -77
27 -162 113 -184 186 -50 168 31 421 195 604 47 53 167 156 182 156 5 0 5 -25
0 -57z"/>
<path d="M4241 3485 c4 -79 0 -94 -45 -144 -51 -58 -68 -104 -56 -156 22 -99
149 -137 229 -69 85 71 51 231 -76 355 l-55 54 3 -40z"/>
</g>
</svg>
